<?xml version="1.0" encoding="UTF-8" standalone="no"?>
<!-- Created with Inkscape (http://www.inkscape.org/) -->

<svg
   width="319.80032mm"
   height="75.218864mm"
   viewBox="0 0 319.80032 75.218864"
   version="1.1"
   id="svg5"
   inkscape:version="1.1 (c68e22c387, 2021-05-23)"
   sodipodi:docname="pilaroid_icons.svg"
   xmlns:inkscape="http://www.inkscape.org/namespaces/inkscape"
   xmlns:sodipodi="http://sodipodi.sourceforge.net/DTD/sodipodi-0.dtd"
   xmlns="http://www.w3.org/2000/svg"
   xmlns:svg="http://www.w3.org/2000/svg">
  <sodipodi:namedview
     id="namedview7"
     pagecolor="#ffffff"
     bordercolor="#666666"
     borderopacity="1.0"
     inkscape:pageshadow="2"
     inkscape:pageopacity="0.0"
     inkscape:pagecheckerboard="0"
     inkscape:document-units="mm"
     showgrid="false"
     inkscape:zoom="0.38217592"
     inkscape:cx="419.96366"
     inkscape:cy="202.78619"
     inkscape:window-width="1920"
     inkscape:window-height="1017"
     inkscape:window-x="-8"
     inkscape:window-y="-8"
     inkscape:window-maximized="1"
     inkscape:current-layer="layer1"
     fit-margin-top="0"
     fit-margin-left="0"
     fit-margin-right="0"
     fit-margin-bottom="0" />
  <defs
     id="defs2" />
  <g
     inkscape:label="Calque 1"
     inkscape:groupmode="layer"
     id="layer1"
     transform="translate(-12.619089,-14.77333)">
    <path
       style="fill:#9ccece;fill-opacity:1;stroke-width:0.122577;stroke-linecap:round;stroke-miterlimit:4;stroke-dasharray:none"
       d="m 136.20086,85.201058 c -0.67312,-0.42816 -1.2543,-0.77916 -1.29152,-0.78 -0.0372,-7.9e-4 -0.55011,0.30138 -1.13975,0.67159 -0.73088,0.45888 -1.19901,0.67311 -1.47092,0.67311 -0.67046,0 -1.55177,-0.37502 -2.0484,-0.87165 l -0.4696,-0.46961 -3.27625,-0.19586 -3.27625,-0.19586 -0.70321,-0.4271 c -1.96126,-1.19119 -2.99464,-2.66743 -3.84228,-5.48891 l -0.29414,-0.97908 0.13673,-18.40248 0.13672,-18.40248 0.36993,-0.62821 c 1.37523,-2.33541 3.43625,-3.94221 6.22597,-4.85385 0.74951,-0.24493 1.43431,-0.58824 2.19909,-1.10247 0.96151,-0.64652 1.13833,-0.72526 1.31693,-0.58647 0.11346,0.0882 0.56902,0.47748 1.01234,0.86514 0.44332,0.38765 0.84888,0.70482 0.90124,0.70482 0.0524,0 0.80291,-0.38998 1.66787,-0.86661 0.95785,-0.52781 1.63418,-0.83038 1.73001,-0.77395 0.0865,0.051 0.66002,0.52249 1.2744,1.04784 l 1.11707,0.95519 1.36442,-0.97673 c 0.75044,-0.53721 1.3903,-0.97673 1.42192,-0.97673 0.0316,0 0.59013,0.41304 1.24112,0.91788 0.651,0.50483 1.23213,0.91787 1.29142,0.91787 0.0593,0 0.65321,-0.41304 1.31982,-0.91787 0.66662,-0.50484 1.24483,-0.91788 1.28492,-0.91788 0.0401,0 0.7076,0.41383 1.48335,0.91964 0.79628,0.51919 1.47322,0.88231 1.5546,0.83391 0.0793,-0.0472 0.67776,-0.51607 1.32996,-1.04203 0.6522,-0.52596 1.21783,-0.95629 1.25697,-0.95629 0.0391,0 0.70147,0.47345 1.47187,1.0521 l 1.40071,1.05211 1.07502,-0.90737 c 0.59127,-0.49905 1.13953,-0.94553 1.21837,-0.99217 0.0832,-0.0492 0.57088,0.27972 1.16264,0.78424 0.56062,0.47798 1.0885,0.89762 1.17307,0.93254 0.0846,0.0349 0.83558,-0.38313 1.66892,-0.92899 0.83333,-0.54585 1.55429,-0.99246 1.60212,-0.99246 0.0478,0 0.56685,0.37854 1.15337,0.8412 1.58507,1.25034 1.50803,1.21726 1.98921,0.85405 0.22467,-0.16959 0.83067,-0.61914 1.34666,-0.99899 l 0.93816,-0.69064 1.42128,1.03745 c 0.78171,0.5706 1.47289,1.03745 1.53597,1.03745 0.0631,0 0.58452,-0.41913 1.15875,-0.93141 l 1.04405,-0.93142 1.02502,0.87023 1.02501,0.87022 1.5148,-0.003 1.5148,-0.003 9.48475,-9.18093 c 9.10929,-8.8175 9.52351,-9.20007 10.46382,-9.66435 1.35995,-0.67147 2.19951,-0.86322 3.79984,-0.86788 2.71614,-0.008 5.55228,0.98802 8.62995,3.03046 5.43552,3.6072 9.82775,9.64356 10.81896,14.86881 0.24157,1.27346 0.24,3.1936 -0.003,4.26414 -0.21959,0.96546 -0.45728,1.35308 -2.05355,3.34891 -2.07808,2.59824 -4.48057,5.19537 -10.55993,11.41547 -3.28966,3.36582 -6.4054,6.58793 -6.92388,7.16026 l -0.94269,1.04061 -0.2677,8.74279 -0.26769,8.74279 -0.45041,1.05192 c -1.62183,3.78777 -4.17619,5.39496 -8.87212,5.58231 l -1.8302,0.073 -0.80105,0.5155 c -0.44058,0.28353 -0.97683,0.60533 -1.19168,0.7151 l -0.39062,0.19959 -1.32275,-0.79477 c -0.72751,-0.43712 -1.37118,-0.79485 -1.43036,-0.79495 -0.0592,-1e-4 -0.59718,0.35779 -1.19553,0.79531 -0.59835,0.43752 -1.11686,0.7955 -1.15224,0.7955 -0.0354,0 -0.66932,-0.41831 -1.40876,-0.92958 -0.7659,-0.52957 -1.42022,-0.9005 -1.52054,-0.86201 -0.0969,0.0372 -0.75623,0.45681 -1.46529,0.93253 l -1.28918,0.86495 -1.10352,-0.742 c -0.60693,-0.4081 -1.1834,-0.77266 -1.28105,-0.81013 -0.10147,-0.0389 -0.67352,0.27768 -1.33527,0.73906 -0.63675,0.44394 -1.19513,0.80718 -1.24084,0.80718 -0.0457,0 -0.70067,-0.38551 -1.45547,-0.85669 -0.75481,-0.47118 -1.41681,-0.85669 -1.47111,-0.85669 -0.0543,0 -0.57349,0.34666 -1.15375,0.77036 -0.58027,0.42369 -1.11402,0.80636 -1.1861,0.85036 -0.0721,0.044 -0.70543,-0.30255 -1.40742,-0.77013 -0.70199,-0.46758 -1.32657,-0.85024 -1.38797,-0.85037 -0.0614,-1.2e-4 -0.62451,0.38529 -1.25137,0.85647 -0.62686,0.47118 -1.17729,0.85669 -1.22318,0.85669 -0.0459,0 -0.68042,-0.3327 -1.41008,-0.73933 l -1.32665,-0.73932 -1.32527,0.7819 -1.32527,0.78189 -1.30746,-0.77687 c -0.71911,-0.42728 -1.35262,-0.77688 -1.40779,-0.77688 -0.0552,0 -0.58821,0.34041 -1.18451,0.75646 l -1.08418,0.75645 -1.87821,-0.97063 -1.87822,-0.97062 -0.89333,0.97186 -0.89332,0.97186 -1.30519,-0.83204 c -0.71786,-0.45763 -1.38232,-0.80245 -1.4766,-0.76628 -0.0943,0.0362 -0.63131,0.35339 -1.19342,0.70492 -0.56212,0.35152 -1.13217,0.70639 -1.26679,0.78858 -0.21419,0.13078 -0.39769,0.0522 -1.46861,-0.62903 z m 47.67792,-12.27619 0.35774,-0.35774 v -12.60919 c 0,-9.16846 -0.038,-12.69265 -0.13935,-12.91502 -0.32854,-0.72108 0.61132,-0.68477 -17.72268,-0.68477 -18.08446,0 -17.28715,-0.0274 -17.62566,0.60514 -0.0841,0.15715 -0.12601,4.4541 -0.12601,12.91965 v 12.68419 l 0.35774,0.35774 0.35773,0.35773 h 17.09138 17.09137 z m 0.6715,-28.46861 c 1.27989,-0.35568 2.16516,-1.32597 2.56817,-2.81483 0.17484,-0.64592 0.20158,-1.09451 0.14528,-2.43738 l -0.069,-1.64577 1.51772,-1.5832 c 1.21833,-1.2709 1.48493,-1.61041 1.35152,-1.72114 -0.13191,-0.10947 -0.49754,0.21271 -1.77181,1.56124 l -1.60559,1.69918 0.13449,0.71978 c 0.074,0.39589 0.11045,1.27052 0.0811,1.94363 -0.0906,2.07562 -0.82462,3.26681 -2.37423,3.85302 -0.63935,0.24187 -0.88602,0.26616 -2.20911,0.21752 -1.30026,-0.0478 -1.57417,-0.0962 -2.15696,-0.38136 -1.62492,-0.795 -2.7931,-2.8803 -2.6104,-4.6598 0.15177,-1.47815 1.36344,-3.18692 2.70762,-3.81843 0.56851,-0.2671 0.76384,-0.28766 2.75364,-0.2899 l 2.14172,-0.002 2.69244,-2.6181 c 2.15048,-2.0911 2.64944,-2.63542 2.4788,-2.70413 -0.16498,-0.0664 -0.80056,0.48665 -2.79041,2.42823 l -2.57676,2.51426 -2.22733,0.0381 c -2.55212,0.0436 -2.83514,0.12895 -3.91608,1.18027 -1.75961,1.7114 -2.14048,3.78839 -1.1009,6.0036 0.44938,0.95757 1.65254,2.12411 2.47127,2.39604 1.30336,0.43291 3.06769,0.48205 4.36485,0.12157 z m -22.65636,-0.10905 c 1.37268,-0.41311 2.01931,-1.23948 2.02419,-2.58684 0.004,-1.06454 -0.28865,-1.93513 -0.83309,-2.47957 -0.56265,-0.56264 -1.269,-0.7925 -2.47702,-0.80603 l -0.92631,-0.0104 -0.96378,-0.88802 c -0.65514,-0.60364 -1.00376,-0.84804 -1.08862,-0.76319 -0.0849,0.0849 0.1966,0.44794 0.87886,1.13377 l 1.00369,1.00893 0.98923,-0.0449 c 1.68895,-0.0767 2.48436,0.41512 2.88166,1.78179 0.24959,0.85855 0.18074,1.88015 -0.15741,2.33551 -0.13538,0.18232 -0.56768,0.4967 -0.96067,0.69864 -0.58073,0.2984 -0.86493,0.36704 -1.51792,0.36659 -1.08429,-7.9e-4 -1.77662,-0.39598 -2.26482,-1.29295 -0.33451,-0.61463 -0.34472,-0.6832 -0.2704,-1.81723 l 0.0772,-1.1785 -1.63547,-1.6321 c -1.01436,-1.01227 -1.66811,-1.57928 -1.72143,-1.49301 -0.0968,0.15667 0.69981,1.10816 2.00383,2.39333 l 0.86594,0.8534 0.003,1.22712 c 0.003,1.40079 0.18716,1.94983 0.87199,2.60057 0.76274,0.72476 2.01385,0.95537 3.21763,0.59309 z m -9.23959,-0.1803 c 1.525,-0.47464 2.01151,-1.12131 2.00551,-2.66575 -0.003,-0.83947 -0.0584,-1.1133 -0.34007,-1.68902 -0.53946,-1.10261 -1.64446,-1.63316 -3.12237,-1.49914 -0.69225,0.0628 -0.7286,0.0511 -1.12485,-0.36168 -0.76081,-0.79252 -1.58203,-1.42291 -1.69999,-1.30496 -0.0699,0.0699 0.26351,0.48852 0.86685,1.08822 l 0.98048,0.97458 1.12901,8e-4 c 1.35436,7.9e-4 1.97706,0.26505 2.50569,1.06326 0.29397,0.44386 0.34198,0.65037 0.37834,1.62724 0.0397,1.06762 0.0264,1.13696 -0.29076,1.5139 -0.65478,0.77816 -2.06444,1.24353 -3.01344,0.99484 -0.82096,-0.21514 -1.38545,-0.64694 -1.70757,-1.30617 -0.25351,-0.51884 -0.28395,-0.73591 -0.25426,-1.81323 l 0.0337,-1.22384 -1.59414,-1.58705 c -1.13603,-1.13098 -1.63192,-1.54928 -1.72559,-1.45561 -0.0937,0.0937 0.31491,0.59476 1.42177,1.74366 l 1.55322,1.61222 -0.084,1.03537 c -0.0731,0.90107 -0.0506,1.11095 0.1736,1.61796 0.69596,1.5739 2.15002,2.18192 3.90885,1.63451 z m 19.34746,-0.14729 c 0.66619,-0.28659 1.414,-1.0262 1.5383,-1.52143 0.15167,-0.60433 -0.0186,-2.1705 -0.29429,-2.70633 -0.55491,-1.07864 -1.69328,-1.61126 -3.16113,-1.47902 l -0.71779,0.0647 -0.94685,-0.93114 c -0.77311,-0.76028 -0.97521,-0.90175 -1.10145,-0.77099 -0.12582,0.13033 0.0391,0.34064 0.88565,1.12952 l 1.04026,0.96936 0.79593,-0.076 c 1.02514,-0.0979 1.72193,0.0927 2.32219,0.63495 0.79255,0.71602 1.1207,2.33735 0.66671,3.29407 -0.5139,1.08295 -2.6137,1.66892 -3.80034,1.06051 -1.09545,-0.56165 -1.44502,-1.33027 -1.32935,-2.9229 l 0.0818,-1.12624 -1.59366,-1.62739 c -1.29224,-1.31959 -1.62343,-1.59805 -1.75102,-1.47224 -0.12769,0.12592 0.13512,0.44881 1.39457,1.71337 l 1.55192,1.55822 -0.0736,1.11455 c -0.0673,1.01819 -0.047,1.17275 0.23452,1.78766 0.69468,1.51738 2.48838,2.06791 4.25767,1.30679 z m 29.65673,-6.47699 c 1.16337,-0.43528 2.15942,-1.81651 2.15942,-2.99452 0,-0.65674 -0.40224,-1.57779 -0.94022,-2.15294 -1.58935,-1.69914 -4.45765,-1.37799 -5.59453,0.6264 -0.32878,0.57964 -0.37885,0.78522 -0.3718,1.52654 0.006,0.62885 0.0789,0.99318 0.27434,1.36993 0.81964,1.58035 2.73328,2.27542 4.47279,1.62459 z"
       id="path19444" />
    <path
       style="fill:#a7382f;fill-opacity:1;stroke-width:0.122577;stroke-linecap:round;stroke-miterlimit:4;stroke-dasharray:none"
       d="m 30.431401,84.839528 c -0.67311,-0.42816 -1.25429,-0.77916 -1.29151,-0.78 -0.0372,-7.9e-4 -0.55011,0.30138 -1.13975,0.67159 -0.73088,0.45888 -1.19901,0.67311 -1.47092,0.67311 -0.67046,0 -1.55177,-0.37502 -2.0484,-0.87165 l -0.4696,-0.46961 -3.27625,-0.19586 -3.27626,-0.19586 -0.70321,-0.4271 c -1.96125,-1.19119 -2.99463,-2.66743 -3.84227,-5.48891 l -0.294142,-0.97908 0.13672,-18.40248 0.136732,-18.40248 0.36993,-0.62821 c 1.37523,-2.33541 3.43625,-3.94221 6.22597,-4.85385 0.74951,-0.24493 1.43431,-0.58824 2.19909,-1.10247 0.96151,-0.64652 1.13833,-0.72526 1.31693,-0.58647 0.11346,0.0882 0.56902,0.47748 1.01234,0.86514 0.44332,0.38765 0.84888,0.70482 0.90124,0.70482 0.0524,0 0.80291,-0.38998 1.66787,-0.86661 0.95784,-0.52781 1.63418,-0.83038 1.73001,-0.77395 0.0865,0.051 0.66002,0.52249 1.2744,1.04784 l 1.11707,0.95519 1.36442,-0.97673 c 0.75044,-0.53721 1.3903,-0.97673 1.42192,-0.97673 0.0316,0 0.59013,0.41304 1.24112,0.91788 0.651,0.50483 1.23213,0.91787 1.29142,0.91787 0.0593,0 0.65321,-0.41304 1.31982,-0.91787 0.66662,-0.50484 1.24483,-0.91788 1.28492,-0.91788 0.0401,0 0.7076,0.41383 1.48335,0.91964 0.79628,0.51919 1.47322,0.88231 1.5546,0.83391 0.0793,-0.0472 0.67776,-0.51607 1.32996,-1.04203 0.6522,-0.52596 1.21783,-0.95629 1.25697,-0.95629 0.0391,0 0.70147,0.47345 1.47186,1.0521 l 1.40072,1.05211 1.07502,-0.90737 c 0.59127,-0.49905 1.13953,-0.94553 1.21837,-0.99217 0.0832,-0.0492 0.57088,0.27972 1.16264,0.78424 0.56062,0.47798 1.0885,0.89762 1.17307,0.93254 0.0846,0.0349 0.83558,-0.38313 1.66892,-0.92899 0.83333,-0.54585 1.55429,-0.99246 1.60212,-0.99246 0.0478,0 0.56685,0.37854 1.15337,0.8412 1.58507,1.25034 1.50803,1.21726 1.98921,0.85405 0.22467,-0.16959 0.83067,-0.61914 1.34666,-0.99899 l 0.93816,-0.69064 1.42128,1.03745 c 0.78171,0.5706 1.47289,1.03745 1.53597,1.03745 0.0631,0 0.58452,-0.41913 1.15875,-0.93141 l 1.04405,-0.93142 1.02502,0.87023 1.02501,0.87022 1.5148,-0.003 1.5148,-0.003 9.48475,-9.18093 c 9.10929,-8.8175 9.52351,-9.20007 10.46382,-9.66435 1.35995,-0.67147 2.19951,-0.86322 3.79984,-0.86788 2.71614,-0.008 5.55228,0.98802 8.629949,3.03046 5.43552,3.6072 9.82775,9.64356 10.81896,14.86881 0.24157,1.27346 0.24,3.1936 -0.003,4.26414 -0.21959,0.96546 -0.45728,1.35308 -2.05355,3.34891 -2.07808,2.59824 -4.48057,5.19537 -10.55993,11.41547 -3.289659,3.36582 -6.405399,6.58793 -6.923879,7.16026 l -0.94269,1.04061 -0.2677,8.74279 -0.26769,8.74279 -0.45041,1.05192 c -1.62183,3.78777 -4.17619,5.39496 -8.87212,5.58231 l -1.8302,0.073 -0.80105,0.5155 c -0.44058,0.28353 -0.97683,0.60533 -1.19168,0.7151 l -0.39062,0.19959 -1.32275,-0.79477 c -0.72751,-0.43712 -1.37118,-0.79485 -1.43036,-0.79495 -0.0592,-10e-5 -0.59718,0.35779 -1.19553,0.79531 -0.59835,0.43752 -1.11686,0.7955 -1.15224,0.7955 -0.0354,0 -0.66932,-0.41831 -1.40876,-0.92958 -0.7659,-0.52957 -1.42022,-0.9005 -1.52054,-0.86201 -0.0969,0.0372 -0.75623,0.45681 -1.46529,0.93253 l -1.28918,0.86495 -1.10352,-0.742 c -0.60693,-0.4081 -1.1834,-0.77266 -1.28105,-0.81013 -0.10147,-0.0389 -0.67352,0.27768 -1.33527,0.73906 -0.63675,0.44394 -1.19513,0.80718 -1.24084,0.80718 -0.0457,0 -0.70067,-0.38551 -1.45547,-0.85669 -0.75481,-0.47118 -1.41681,-0.85669 -1.47111,-0.85669 -0.0543,0 -0.57349,0.34666 -1.15375,0.77036 -0.58027,0.42369 -1.11402,0.80636 -1.1861,0.85036 -0.0721,0.044 -0.70543,-0.30255 -1.40742,-0.77013 -0.70199,-0.46758 -1.32657,-0.85024 -1.38797,-0.85037 -0.0614,-1.2e-4 -0.62451,0.38529 -1.25137,0.85647 -0.62686,0.47118 -1.17729,0.85669 -1.22318,0.85669 -0.0459,0 -0.68042,-0.3327 -1.41008,-0.73933 l -1.32665,-0.73932 -1.32527,0.7819 -1.32527,0.78189 -1.30746,-0.77687 c -0.71911,-0.42728 -1.35262,-0.77688 -1.4078,-0.77688 -0.0552,0 -0.5882,0.34041 -1.1845,0.75646 l -1.08418,0.75645 -1.87821,-0.97063 -1.87822,-0.97062 -0.89333,0.97186 -0.89332,0.97186 -1.30519,-0.83204 c -0.71786,-0.45763 -1.38232,-0.80245 -1.4766,-0.76628 -0.0943,0.0362 -0.63131,0.35339 -1.19342,0.70492 -0.56212,0.35152 -1.13217,0.70639 -1.26679,0.78858 -0.21419,0.13078 -0.39769,0.0522 -1.46861,-0.62903 z m 47.67793,-12.27619 0.35774,-0.35774 v -12.60919 c 0,-9.16846 -0.038,-12.69265 -0.13935,-12.91502 -0.32854,-0.72108 0.61132,-0.68477 -17.72268,-0.68477 -18.08446,0 -17.28715,-0.0274 -17.62566,0.60514 -0.0841,0.15715 -0.12601,4.4541 -0.12601,12.91965 v 12.68419 l 0.35773,0.35774 0.35774,0.35773 h 17.09138 17.09137 z m 0.6715,-28.46861 c 1.27989,-0.35568 2.16516,-1.32597 2.56817,-2.81483 0.17484,-0.64592 0.20158,-1.09451 0.14528,-2.43738 l -0.069,-1.64577 1.51772,-1.5832 c 1.21833,-1.2709 1.48493,-1.61041 1.35152,-1.72114 -0.13191,-0.10947 -0.49754,0.21271 -1.77181,1.56124 l -1.60559,1.69918 0.13449,0.71978 c 0.074,0.39589 0.11045,1.27052 0.0811,1.94363 -0.0906,2.07562 -0.82462,3.26681 -2.37423,3.85302 -0.63935,0.24187 -0.88602,0.26616 -2.20911,0.21752 -1.30026,-0.0478 -1.57417,-0.0962 -2.15696,-0.38136 -1.62492,-0.795 -2.7931,-2.8803 -2.6104,-4.6598 0.15177,-1.47815 1.36344,-3.18692 2.70762,-3.81843 0.56851,-0.2671 0.76384,-0.28766 2.75364,-0.2899 l 2.14172,-0.002 2.69244,-2.6181 c 2.15048,-2.0911 2.64944,-2.63542 2.4788,-2.70413 -0.16498,-0.0664 -0.80056,0.48665 -2.79041,2.42823 l -2.57676,2.51426 -2.22733,0.0381 c -2.55212,0.0436 -2.83514,0.12895 -3.91608,1.18027 -1.75961,1.7114 -2.14048,3.78839 -1.1009,6.0036 0.44938,0.95757 1.65254,2.12411 2.47127,2.39604 1.30336,0.43291 3.06769,0.48205 4.36485,0.12157 z m -22.65636,-0.10905 c 1.37268,-0.41311 2.01931,-1.23948 2.02419,-2.58684 0.004,-1.06454 -0.28865,-1.93513 -0.83309,-2.47957 -0.56265,-0.56264 -1.269,-0.7925 -2.47702,-0.80603 l -0.92631,-0.0104 -0.96378,-0.88802 c -0.65514,-0.60364 -1.00376,-0.84804 -1.08862,-0.76319 -0.0849,0.0849 0.1966,0.44794 0.87886,1.13377 l 1.00369,1.00893 0.98923,-0.0449 c 1.68895,-0.0767 2.48436,0.41512 2.88166,1.78179 0.24959,0.85855 0.18074,1.88015 -0.15741,2.33551 -0.13538,0.18232 -0.56768,0.4967 -0.96067,0.69864 -0.58073,0.2984 -0.86493,0.36704 -1.51792,0.36659 -1.08429,-7.9e-4 -1.77662,-0.39598 -2.26482,-1.29295 -0.33451,-0.61463 -0.34472,-0.6832 -0.2704,-1.81723 l 0.0772,-1.1785 -1.63547,-1.6321 c -1.01436,-1.01227 -1.66811,-1.57928 -1.72143,-1.49301 -0.0968,0.15667 0.69981,1.10816 2.00383,2.39333 l 0.86594,0.8534 0.003,1.22712 c 0.003,1.40079 0.18716,1.94983 0.87199,2.60057 0.76274,0.72476 2.01385,0.95537 3.21763,0.59309 z m -9.23959,-0.1803 c 1.525,-0.47464 2.01151,-1.12131 2.00551,-2.66575 -0.003,-0.83947 -0.0584,-1.1133 -0.34007,-1.68902 -0.53946,-1.10261 -1.64446,-1.63316 -3.12237,-1.49914 -0.69225,0.0628 -0.7286,0.0511 -1.12485,-0.36168 -0.76081,-0.79252 -1.58204,-1.42291 -1.69999,-1.30496 -0.0699,0.0699 0.26351,0.48852 0.86685,1.08822 l 0.98048,0.97458 1.12901,8e-4 c 1.35436,7.9e-4 1.97706,0.26505 2.50569,1.06326 0.29397,0.44386 0.34198,0.65037 0.37834,1.62724 0.0397,1.06762 0.0264,1.13696 -0.29076,1.5139 -0.65478,0.77816 -2.06444,1.24353 -3.01344,0.99484 -0.82096,-0.21514 -1.38545,-0.64694 -1.70757,-1.30617 -0.25351,-0.51884 -0.28395,-0.73591 -0.25426,-1.81323 l 0.0337,-1.22384 -1.59414,-1.58705 c -1.13603,-1.13098 -1.63192,-1.54928 -1.72559,-1.45561 -0.0937,0.0937 0.31491,0.59476 1.42177,1.74366 l 1.55322,1.61222 -0.084,1.03537 c -0.0731,0.90107 -0.0506,1.11095 0.1736,1.61796 0.69596,1.5739 2.15002,2.18192 3.90885,1.63451 z m 19.34746,-0.14729 c 0.66619,-0.28659 1.414,-1.0262 1.5383,-1.52143 0.15167,-0.60433 -0.0186,-2.1705 -0.29429,-2.70633 -0.55491,-1.07864 -1.69328,-1.61126 -3.16113,-1.47902 l -0.71779,0.0647 -0.94685,-0.93114 c -0.77311,-0.76028 -0.97521,-0.90175 -1.10145,-0.77099 -0.12582,0.13033 0.0391,0.34064 0.88565,1.12952 l 1.04026,0.96936 0.79593,-0.076 c 1.02514,-0.0979 1.72193,0.0927 2.32219,0.63495 0.79255,0.71602 1.1207,2.33735 0.66671,3.29407 -0.5139,1.08295 -2.6137,1.66892 -3.80034,1.06051 -1.09545,-0.56165 -1.44502,-1.33027 -1.32935,-2.9229 l 0.0818,-1.12624 -1.59366,-1.62739 c -1.29224,-1.31959 -1.62343,-1.59805 -1.75102,-1.47224 -0.12769,0.12592 0.13512,0.44881 1.39457,1.71337 l 1.55192,1.55822 -0.0736,1.11455 c -0.0673,1.01819 -0.047,1.17275 0.23452,1.78766 0.69468,1.51738 2.48838,2.06791 4.25767,1.30679 z m 29.65673,-6.47699 c 1.16337,-0.43528 2.15942,-1.81651 2.15942,-2.99452 0,-0.65674 -0.40224,-1.57779 -0.94022,-2.15294 -1.58935,-1.69914 -4.45765,-1.37799 -5.59453,0.6264 -0.32878,0.57964 -0.37885,0.78522 -0.3718,1.52654 0.006,0.62885 0.0789,0.99318 0.27434,1.36993 0.81964,1.58035 2.73328,2.27542 4.47279,1.62459 z"
       id="path19444-2" />
    <path
       style="fill:#332f2e;fill-opacity:1;stroke-width:0.122577;stroke-linecap:round;stroke-miterlimit:4;stroke-dasharray:none"
       d="m 248.77759,89.220458 c -0.67311,-0.42816 -1.25429,-0.77916 -1.29151,-0.78 -0.0372,-7.9e-4 -0.55011,0.30138 -1.13975,0.67159 -0.73088,0.45888 -1.19901,0.67311 -1.47092,0.67311 -0.67046,0 -1.55177,-0.37502 -2.0484,-0.87165 l -0.4696,-0.46961 -3.27625,-0.19586 -3.27626,-0.19586 -0.70321,-0.4271 c -1.96125,-1.19119 -2.99463,-2.66743 -3.84227,-5.48891 l -0.29414,-0.97908 0.13672,-18.40248 0.13673,-18.40248 0.36993,-0.62821 c 1.37523,-2.33541 3.43625,-3.94221 6.22597,-4.85385 0.74951,-0.24493 1.43431,-0.58824 2.19909,-1.10247 0.96151,-0.64652 1.13833,-0.72526 1.31693,-0.58647 0.11346,0.0882 0.56902,0.47748 1.01234,0.86514 0.44332,0.38765 0.84888,0.70482 0.90124,0.70482 0.0524,0 0.80291,-0.38998 1.66787,-0.86661 0.95784,-0.52781 1.63418,-0.83038 1.73001,-0.77395 0.0865,0.051 0.66002,0.52249 1.2744,1.04784 l 1.11707,0.95519 1.36442,-0.97673 c 0.75044,-0.53721 1.3903,-0.97673 1.42192,-0.97673 0.0316,0 0.59013,0.41304 1.24112,0.91788 0.651,0.50483 1.23213,0.91787 1.29142,0.91787 0.0593,0 0.65321,-0.41304 1.31982,-0.91787 0.66662,-0.50484 1.24483,-0.91788 1.28492,-0.91788 0.0401,0 0.7076,0.41383 1.48335,0.91964 0.79628,0.51919 1.47322,0.88231 1.5546,0.83391 0.0793,-0.0472 0.67776,-0.51607 1.32996,-1.04203 0.6522,-0.52596 1.21783,-0.95629 1.25697,-0.95629 0.0391,0 0.70147,0.47345 1.47186,1.0521 l 1.40072,1.05211 1.07502,-0.90737 c 0.59127,-0.49905 1.13953,-0.94553 1.21837,-0.99217 0.0832,-0.0492 0.57088,0.27972 1.16264,0.78424 0.56062,0.47798 1.0885,0.89762 1.17307,0.93254 0.0846,0.0349 0.83558,-0.38313 1.66892,-0.92899 0.83333,-0.54585 1.55429,-0.99246 1.60212,-0.99246 0.0478,0 0.56685,0.37854 1.15337,0.8412 1.58507,1.25034 1.50803,1.21726 1.98921,0.85405 0.22467,-0.16959 0.83067,-0.61914 1.34666,-0.99899 l 0.93816,-0.69064 1.42128,1.03745 c 0.78171,0.5706 1.47289,1.03745 1.53597,1.03745 0.0631,0 0.58452,-0.41913 1.15875,-0.93141 l 1.04405,-0.93142 1.02502,0.87023 1.02501,0.87022 1.5148,-0.003 1.5148,-0.003 9.48475,-9.18093 c 9.10929,-8.8175 9.52351,-9.20007 10.46382,-9.66435 1.35995,-0.67147 2.19951,-0.86322 3.79984,-0.86788 2.71614,-0.008 5.55228,0.98802 8.62995,3.03046 5.43552,3.6072 9.82775,9.64356 10.81896,14.86881 0.24157,1.27346 0.24,3.1936 -0.003,4.26414 -0.21959,0.96546 -0.45728,1.35308 -2.05355,3.34891 -2.07808,2.59824 -4.48057,5.19537 -10.55993,11.41547 -3.28966,3.36582 -6.4054,6.58793 -6.92388,7.16026 l -0.94269,1.04061 -0.2677,8.74279 -0.26769,8.74279 -0.45041,1.05192 c -1.62183,3.78777 -4.17619,5.39496 -8.87212,5.58231 l -1.8302,0.073 -0.80105,0.5155 c -0.44058,0.28353 -0.97683,0.60533 -1.19168,0.7151 l -0.39062,0.19959 -1.32275,-0.79477 c -0.72751,-0.43712 -1.37118,-0.79485 -1.43036,-0.79495 -0.0592,-1e-4 -0.59718,0.35779 -1.19553,0.79531 -0.59835,0.43752 -1.11686,0.7955 -1.15224,0.7955 -0.0354,0 -0.66932,-0.41831 -1.40876,-0.92958 -0.7659,-0.52957 -1.42022,-0.9005 -1.52054,-0.86201 -0.0969,0.0372 -0.75623,0.45681 -1.46529,0.93253 l -1.28918,0.86495 -1.10352,-0.742 c -0.60693,-0.4081 -1.1834,-0.77266 -1.28105,-0.81013 -0.10147,-0.0389 -0.67352,0.27768 -1.33527,0.73906 -0.63675,0.44394 -1.19513,0.80718 -1.24084,0.80718 -0.0457,0 -0.70067,-0.38551 -1.45547,-0.85669 -0.75481,-0.47118 -1.41681,-0.85669 -1.47111,-0.85669 -0.0543,0 -0.57349,0.34666 -1.15375,0.77036 -0.58027,0.42369 -1.11402,0.80636 -1.1861,0.85036 -0.0721,0.044 -0.70543,-0.30255 -1.40742,-0.77013 -0.70199,-0.46758 -1.32657,-0.85024 -1.38797,-0.85037 -0.0614,-1.2e-4 -0.62451,0.38529 -1.25137,0.85647 -0.62686,0.47118 -1.17729,0.85669 -1.22318,0.85669 -0.0459,0 -0.68042,-0.3327 -1.41008,-0.73933 l -1.32665,-0.73932 -1.32527,0.7819 -1.32527,0.78189 -1.30746,-0.77687 c -0.71911,-0.42728 -1.35262,-0.77688 -1.4078,-0.77688 -0.0552,0 -0.5882,0.34041 -1.1845,0.75646 l -1.08418,0.75645 -1.87821,-0.97063 -1.87822,-0.97062 -0.89333,0.97186 -0.89332,0.97186 -1.30519,-0.83204 c -0.71786,-0.45763 -1.38232,-0.80245 -1.4766,-0.76628 -0.0943,0.0362 -0.63131,0.35339 -1.19342,0.70492 -0.56212,0.35152 -1.13217,0.70639 -1.26679,0.78858 -0.21419,0.13078 -0.39769,0.0522 -1.46861,-0.62903 z m 47.67793,-12.27619 0.35774,-0.35774 v -12.60919 c 0,-9.16846 -0.038,-12.69265 -0.13935,-12.91502 -0.32854,-0.72108 0.61132,-0.68477 -17.72268,-0.68477 -18.08446,0 -17.28715,-0.0274 -17.62566,0.60514 -0.0841,0.15715 -0.12601,4.4541 -0.12601,12.91965 v 12.68419 l 0.35773,0.35774 0.35774,0.35773 h 17.09138 17.09137 z m 0.6715,-28.46861 c 1.27989,-0.35568 2.16516,-1.32597 2.56817,-2.81483 0.17484,-0.64592 0.20158,-1.09451 0.14528,-2.43738 l -0.069,-1.64577 1.51772,-1.5832 c 1.21833,-1.2709 1.48493,-1.61041 1.35152,-1.72114 -0.13191,-0.10947 -0.49754,0.21271 -1.77181,1.56124 l -1.60559,1.69918 0.13449,0.71978 c 0.074,0.39589 0.11045,1.27052 0.0811,1.94363 -0.0906,2.07562 -0.82462,3.26681 -2.37423,3.85302 -0.63935,0.24187 -0.88602,0.26616 -2.20911,0.21752 -1.30026,-0.0478 -1.57417,-0.0962 -2.15696,-0.38136 -1.62492,-0.795 -2.7931,-2.8803 -2.6104,-4.6598 0.15177,-1.47815 1.36344,-3.18692 2.70762,-3.81843 0.56851,-0.2671 0.76384,-0.28766 2.75364,-0.2899 l 2.14172,-0.002 2.69244,-2.6181 c 2.15048,-2.0911 2.64944,-2.63542 2.4788,-2.70413 -0.16498,-0.0664 -0.80056,0.48665 -2.79041,2.42823 l -2.57676,2.51426 -2.22733,0.0381 c -2.55212,0.0436 -2.83514,0.12895 -3.91608,1.18027 -1.75961,1.7114 -2.14048,3.78839 -1.1009,6.0036 0.44938,0.95757 1.65254,2.12411 2.47127,2.39604 1.30336,0.43291 3.06769,0.48205 4.36485,0.12157 z m -22.65636,-0.10905 c 1.37268,-0.41311 2.01931,-1.23948 2.02419,-2.58684 0.004,-1.06454 -0.28865,-1.93513 -0.83309,-2.47957 -0.56265,-0.56264 -1.269,-0.7925 -2.47702,-0.80603 l -0.92631,-0.0104 -0.96378,-0.88802 c -0.65514,-0.60364 -1.00376,-0.84804 -1.08862,-0.76319 -0.0849,0.0849 0.1966,0.44794 0.87886,1.13377 l 1.00369,1.00893 0.98923,-0.0449 c 1.68895,-0.0767 2.48436,0.41512 2.88166,1.78179 0.24959,0.85855 0.18074,1.88015 -0.15741,2.33551 -0.13538,0.18232 -0.56768,0.4967 -0.96067,0.69864 -0.58073,0.2984 -0.86493,0.36704 -1.51792,0.36659 -1.08429,-7.9e-4 -1.77662,-0.39598 -2.26482,-1.29295 -0.33451,-0.61463 -0.34472,-0.6832 -0.2704,-1.81723 l 0.0772,-1.1785 -1.63547,-1.6321 c -1.01436,-1.01227 -1.66811,-1.57928 -1.72143,-1.49301 -0.0968,0.15667 0.69981,1.10816 2.00383,2.39333 l 0.86594,0.8534 0.003,1.22712 c 0.003,1.40079 0.18716,1.94983 0.87199,2.60057 0.76274,0.72476 2.01385,0.95537 3.21763,0.59309 z m -9.23959,-0.1803 c 1.525,-0.47464 2.01151,-1.12131 2.00551,-2.66575 -0.003,-0.83947 -0.0584,-1.1133 -0.34007,-1.68902 -0.53946,-1.10261 -1.64446,-1.63316 -3.12237,-1.49914 -0.69225,0.0628 -0.7286,0.0511 -1.12485,-0.36168 -0.76081,-0.79252 -1.58204,-1.42291 -1.69999,-1.30496 -0.0699,0.0699 0.26351,0.48852 0.86685,1.08822 l 0.98048,0.97458 1.12901,8e-4 c 1.35436,7.9e-4 1.97706,0.26505 2.50569,1.06326 0.29397,0.44386 0.34198,0.65037 0.37834,1.62724 0.0397,1.06762 0.0264,1.13696 -0.29076,1.5139 -0.65478,0.77816 -2.06444,1.24353 -3.01344,0.99484 -0.82096,-0.21514 -1.38545,-0.64694 -1.70757,-1.30617 -0.25351,-0.51884 -0.28395,-0.73591 -0.25426,-1.81323 l 0.0337,-1.22384 -1.59414,-1.58705 c -1.13603,-1.13098 -1.63192,-1.54928 -1.72559,-1.45561 -0.0937,0.0937 0.31491,0.59476 1.42177,1.74366 l 1.55322,1.61222 -0.084,1.03537 c -0.0731,0.90107 -0.0506,1.11095 0.1736,1.61796 0.69596,1.5739 2.15002,2.18192 3.90885,1.63451 z m 19.34746,-0.14729 c 0.66619,-0.28659 1.414,-1.0262 1.5383,-1.52143 0.15167,-0.60433 -0.0186,-2.1705 -0.29429,-2.70633 -0.55491,-1.07864 -1.69328,-1.61126 -3.16113,-1.47902 l -0.71779,0.0647 -0.94685,-0.93114 c -0.77311,-0.76028 -0.97521,-0.90175 -1.10145,-0.77099 -0.12582,0.13033 0.0391,0.34064 0.88565,1.12952 l 1.04026,0.96936 0.79593,-0.076 c 1.02514,-0.0979 1.72193,0.0927 2.32219,0.63495 0.79255,0.71602 1.1207,2.33735 0.66671,3.29407 -0.5139,1.08295 -2.6137,1.66892 -3.80034,1.06051 -1.09545,-0.56165 -1.44502,-1.33027 -1.32935,-2.9229 l 0.0818,-1.12624 -1.59366,-1.62739 c -1.29224,-1.31959 -1.62343,-1.59805 -1.75102,-1.47224 -0.12769,0.12592 0.13512,0.44881 1.39457,1.71337 l 1.55192,1.55822 -0.0736,1.11455 c -0.0673,1.01819 -0.047,1.17275 0.23452,1.78766 0.69468,1.51738 2.48838,2.06791 4.25767,1.30679 z m 29.65673,-6.47699 c 1.16337,-0.43528 2.15942,-1.81651 2.15942,-2.99452 0,-0.65674 -0.40224,-1.57779 -0.94022,-2.15294 -1.58935,-1.69914 -4.45765,-1.37799 -5.59453,0.6264 -0.32878,0.57964 -0.37885,0.78522 -0.3718,1.52654 0.006,0.62885 0.0789,0.99318 0.27434,1.36993 0.81964,1.58035 2.73328,2.27542 4.47279,1.62459 z"
       id="path19444-2-9" />
    <text
       xml:space="preserve"
       style="font-size:10.969px;line-height:1.25;font-family:'Roose Sally';-inkscape-font-specification:'Roose Sally';fill:#000000;stroke-width:0.22852"
       x="123.59367"
       y="32.277546"
       id="text54509"><tspan
         sodipodi:role="line"
         id="tspan54507"
         style="fill:#000000;stroke-width:0.22852"
         x="123.59367"
         y="32.277546">Panoramique</tspan></text>
    <text
       xml:space="preserve"
       style="font-size:11.9944px;line-height:1.25;font-family:'Roose Sally';-inkscape-font-specification:'Roose Sally';fill:#000000;stroke-width:0.249884"
       x="18.74818"
       y="32.225208"
       id="text54509-6"><tspan
         sodipodi:role="line"
         id="tspan54507-7"
         style="fill:#000000;stroke-width:0.249884"
         x="18.74818"
         y="32.225208">GIF</tspan></text>
    <text
       xml:space="preserve"
       style="font-size:12.0939px;line-height:1.25;font-family:'Roose Sally';-inkscape-font-specification:'Roose Sally';fill:#000000;stroke-width:0.251955"
       x="238.23889"
       y="35.35088"
       id="text54509-6-6"><tspan
         sodipodi:role="line"
         id="tspan54507-7-7"
         style="fill:#000000;stroke-width:0.251955"
         x="238.23889"
         y="35.35088">SELFIE</tspan></text>
  </g>
</svg>
